<?xml version="1.0" encoding="UTF-8"?>
<!DOCTYPE svg PUBLIC "-//W3C//DTD SVG 1.1//EN" "http://www.w3.org/Graphics/SVG/1.1/DTD/svg11.dtd">
<svg xmlns="http://www.w3.org/2000/svg" version="1.1" width="64px" height="64px" style="shape-rendering:geometricPrecision; text-rendering:geometricPrecision; image-rendering:optimizeQuality; fill-rule:evenodd; clip-rule:evenodd" xmlns:xlink="http://www.w3.org/1999/xlink">
<g><path style="opacity:0.704" fill="#29416a" d="M 30.5,5.5 C 32.8787,8.17398 35.8787,10.174 39.5,11.5C 36.9228,13.9202 35.9228,16.9202 36.5,20.5C 34.5165,20.6168 32.8498,19.9501 31.5,18.5C 27.463,21.2918 25.6297,19.9585 26,14.5C 22.7162,11.3639 23.5496,9.5306 28.5,9C 29.305,7.88732 29.9717,6.72065 30.5,5.5 Z"/></g>
<g><path style="opacity:0.742" fill="#28436a" d="M 10.5,9.5 C 11.552,9.35055 12.552,9.51722 13.5,10C 14.9344,12.221 16.9344,13.721 19.5,14.5C 18.5,15.8333 17.5,17.1667 16.5,18.5C 17.2458,19.7362 17.5792,21.0695 17.5,22.5C 14.1427,21.3733 10.8094,21.3733 7.5,22.5C 7.58714,19.2613 6.92048,16.2613 5.5,13.5C 8.36674,13.6308 10.0334,12.2974 10.5,9.5 Z"/></g>
<g><path style="opacity:0.692" fill="#2a416b" d="M 49.5,9.5 C 51.68,11.6505 54.3467,12.9838 57.5,13.5C 57.4386,15.5922 56.4386,17.0922 54.5,18C 55.3802,19.3561 55.7135,20.8561 55.5,22.5C 52.1667,21.1667 48.8333,21.1667 45.5,22.5C 45.4208,21.0695 45.7542,19.7362 46.5,18.5C 45.5,17.1667 44.5,15.8333 43.5,14.5C 46.3414,13.7585 48.3414,12.0918 49.5,9.5 Z"/></g>
<g><path style="opacity:1" fill="#5a49e5" d="M 30.5,9.5 C 32.2128,10.305 33.8794,11.305 35.5,12.5C 34.9851,14.2251 34.3184,15.8917 33.5,17.5C 32.1667,16.1667 30.8333,16.1667 29.5,17.5C 28.8659,15.4332 27.8659,13.5998 26.5,12C 28.437,11.8784 29.7703,11.045 30.5,9.5 Z"/></g>
<g><path style="opacity:1" fill="#5649da" d="M 11.5,12.5 C 12.8816,13.8005 14.5483,14.6339 16.5,15C 14.9632,16.1096 14.2965,17.6096 14.5,19.5C 12.8561,19.2865 11.3561,19.6198 10,20.5C 9.65402,18.7818 9.15402,17.1151 8.5,15.5C 9.99346,14.8589 10.9935,13.8589 11.5,12.5 Z"/></g>
<g><path style="opacity:1" fill="#5849df" d="M 49.5,12.5 C 51.2128,13.305 52.8794,14.305 54.5,15.5C 53.1468,16.5237 52.4802,17.857 52.5,19.5C 51.1667,19.5 49.8333,19.5 48.5,19.5C 48.7035,17.6096 48.0368,16.1096 46.5,15C 48.1193,14.7645 49.1193,13.9311 49.5,12.5 Z"/></g>
<g><path style="opacity:0.675" fill="#2f476b" d="M 63.5,45.5 C 63.5,49.5 63.5,53.5 63.5,57.5C 42.1667,57.5 20.8333,57.5 -0.5,57.5C -0.5,53.5 -0.5,49.5 -0.5,45.5C 1.57325,42.2841 4.57325,40.2841 8.5,39.5C 5.59163,34.7103 5.92497,30.2103 9.5,26C 15.7269,24.2738 18.7269,26.6072 18.5,33C 18.6243,35.59 17.9577,37.9233 16.5,40C 20.4013,40.486 24.068,39.8193 27.5,38C 23.5889,33.1794 23.5889,28.3461 27.5,23.5C 32.9808,21.1011 36.4808,22.7678 38,28.5C 38.4931,32.0281 37.6598,35.1947 35.5,38C 38.932,39.8193 42.5987,40.486 46.5,40C 44.5441,36.4054 44.0441,32.572 45,28.5C 47.1672,25.7132 50.0006,24.8799 53.5,26C 57.075,30.2103 57.4084,34.7103 54.5,39.5C 58.4268,40.2841 61.4268,42.2841 63.5,45.5 Z M 29.5,39.5 C 30.6009,38.4017 31.9343,38.235 33.5,39C 32.3248,42.063 30.9914,42.2296 29.5,39.5 Z M 11.5,40.5 C 14.7973,40.3287 15.1306,40.9954 12.5,42.5C 11.7025,42.0431 11.3691,41.3764 11.5,40.5 Z M 48.5,41.5 C 49.3864,40.2241 50.3864,40.2241 51.5,41.5C 50.5754,42.5624 49.5754,42.5624 48.5,41.5 Z"/></g>
<g><path style="opacity:1" fill="#eeccb0" d="M 29.5,24.5 C 36.6979,25.699 38.3646,29.5323 34.5,36C 27.8063,37.176 25.3063,34.3427 27,27.5C 28.045,26.6266 28.8783,25.6266 29.5,24.5 Z"/></g>
<g><path style="opacity:1" fill="#f2cfb2" d="M 10.5,27.5 C 14.8206,26.8244 16.8206,28.6577 16.5,33C 16.0136,38.5769 13.5136,39.7435 9,36.5C 8.06799,33.1769 8.56799,30.1769 10.5,27.5 Z"/></g>
<g><path style="opacity:1" fill="#f0cdb1" d="M 47.5,27.5 C 53.9972,27.1799 56.1639,30.1799 54,36.5C 51.9251,38.6483 49.5918,38.9817 47,37.5C 46.2534,34.0764 46.42,30.7431 47.5,27.5 Z"/></g>
<g><path style="opacity:1" fill="#308ffa" d="M 24.5,41.5 C 27.0895,41.3962 29.4229,42.0629 31.5,43.5C 35.3916,40.9609 39.225,40.9609 43,43.5C 43.4988,47.4862 43.6655,51.4862 43.5,55.5C 36.5,55.5 29.5,55.5 22.5,55.5C 21.962,50.5329 22.6287,45.8662 24.5,41.5 Z"/></g>
<g><path style="opacity:1" fill="#46b6fb" d="M 24.5,41.5 C 22.6287,45.8662 21.962,50.5329 22.5,55.5C 21.5,55.5 20.5,55.5 19.5,55.5C 19.3345,51.4862 19.5012,47.4862 20,43.5C 21.1096,41.9632 22.6096,41.2965 24.5,41.5 Z"/></g>
<g><path style="opacity:1" fill="#e04c5c" d="M 4.5,42.5 C 7.48772,42.4388 10.3211,43.1055 13,44.5C 14.4469,44.0548 15.7803,43.3881 17,42.5C 17.5,42.8333 18,43.1667 18.5,43.5C 17.5672,47.4295 17.2338,51.4295 17.5,55.5C 12.1667,55.5 6.83333,55.5 1.5,55.5C 0.738027,50.6069 1.73803,46.2736 4.5,42.5 Z"/></g>
<g><path style="opacity:1" fill="#eab241" d="M 44.5,42.5 C 46.3666,42.955 48.1999,43.6216 50,44.5C 54.0675,41.5721 57.7342,41.9054 61,45.5C 61.4983,48.8168 61.665,52.1501 61.5,55.5C 56.1667,55.5 50.8333,55.5 45.5,55.5C 45.7059,51.1018 45.3726,46.7685 44.5,42.5 Z"/></g>
</svg>
